# xmcd CD database file
#
# Track frame offsets:
#	150
#	12600
#	23775
#	41175
#	56925
#	77400
#	93225
#	112875
#	127275
#	138450
#	152025
#	166500
#	183225
#	191625
#	208875
#	219150
#
# Disc length: 3092 seconds
#
# Revision: 0
# Processed by: cddbd v1.5.2PL0 Copyright (c) Steve Scherf et al.
# Submitted via: CDex 1.70beta2
#
DISCID=dc0c1210
DTITLE=Various Artist - Největší Hity Country I
DYEAR=2003
DGENRE=Country
TTITLE0=Věra Martinová-Nebe, peklo, ráj
TTITLE1=Petr Spálený-Motel Nonstop
TTITLE2=Jakub Smolík-Dopisy lásky
TTITLE3=Naďa Urbánková-Vilém peče housky
TTITLE4=Jan Vančura-Kopej hrob můj
TTITLE5=Milan Drobný-Ragtime Piano Joe
TTITLE6=Miluška Voborníková-Deštivý den
TTITLE7=Vladimír Čech-Kolikrát se blejská
TTITLE8=Hop Trop-Nehrálo se o ceny
TTITLE9=Samson a jeho parta-Karolína
TTITLE10=Jana Chládková-Sejf na krásný chvíle
TTITLE11=Mirek Hoffmann-Dám si přes rameno pingl
TTITLE12=Pražce-Bazalička
TTITLE13=Stráníci-Hvězdy
TTITLE14=Honza Bican-Největší frajer
TTITLE15=Ponožky pana Semtamťuka-Velryba
EXTD=YEAR: 2003
EXTT0=
EXTT1=
EXTT2=
EXTT3=
EXTT4=
EXTT5=
EXTT6=
EXTT7=
EXTT8=
EXTT9=
EXTT10=
EXTT11=
EXTT12=
EXTT13=
EXTT14=
EXTT15=
PLAYORDER=
